<?xml version="1.0" standalone="no"?>
<!DOCTYPE svg PUBLIC "-//W3C//DTD SVG 20010904//EN"
 "http://www.w3.org/TR/2001/REC-SVG-20010904/DTD/svg10.dtd">
<svg version="1.0" xmlns="http://www.w3.org/2000/svg"
 width="730.000000pt" height="761.000000pt" viewBox="0 0 730.000000 761.000000"
 preserveAspectRatio="xMidYMid meet">
<metadata>
Created by potrace 1.16, written by Peter Selinger 2001-2019
</metadata>
<g transform="translate(0.000000,761.000000) scale(0.100000,-0.100000)"
fill="#000000" stroke="none">
<path d="M3505 7366 c-289 -66 -476 -277 -520 -588 l-6 -36 -97 -7 c-381 -27
-699 -132 -1002 -332 -151 -100 -239 -174 -381 -320 -140 -145 -251 -287 -331
-423 l-53 -91 -45 7 c-70 10 -223 6 -277 -7 -131 -32 -280 -128 -359 -232 -91
-120 -134 -249 -134 -402 0 -187 56 -322 190 -455 98 -98 187 -149 313 -178
89 -20 77 10 101 -243 37 -393 144 -817 291 -1154 131 -301 300 -559 504 -769
174 -178 313 -281 531 -392 l115 -59 18 -60 c92 -310 163 -496 257 -672 285
-534 658 -783 1111 -743 498 44 882 500 1187 1411 l47 141 110 55 c418 210
730 541 968 1026 191 389 317 866 358 1360 l12 144 56 33 c31 18 88 66 127
105 239 244 245 635 14 887 -103 113 -218 177 -364 202 l-69 12 -62 99 c-98
156 -197 284 -320 412 -371 389 -812 610 -1305 653 -226 20 -210 16 -210 55 0
47 -36 159 -76 235 -73 138 -209 252 -360 302 -101 34 -251 44 -339 24z m273
-41 c160 -38 331 -173 405 -322 119 -242 74 -516 -118 -708 -122 -122 -259
-179 -430 -179 -115 0 -185 18 -286 70 -135 71 -252 209 -300 355 -31 97 -34
273 -5 359 72 213 223 360 431 421 75 22 218 24 303 4z m710 -606 c386 -42
741 -189 1057 -439 121 -95 299 -280 401 -416 89 -117 181 -261 173 -268 -2
-2 -42 -11 -89 -19 -217 -37 -390 -164 -481 -353 -182 -377 21 -815 426 -919
101 -26 293 -16 385 20 14 5 15 -8 8 -102 -11 -155 -44 -374 -83 -558 -90
-417 -236 -784 -433 -1090 -166 -257 -422 -512 -657 -650 -111 -66 -215 -117
-215 -105 0 5 9 65 20 132 48 303 68 795 51 1285 -13 392 -25 559 -52 697 -22
117 -36 143 -85 152 -20 4 -205 -1 -412 -10 -791 -34 -1024 -32 -1672 14 -151
11 -320 20 -375 20 -97 0 -102 -1 -128 -28 -33 -35 -44 -86 -57 -287 -28 -432
-23 -1202 11 -1620 10 -131 46 -405 56 -431 8 -21 -176 72 -282 142 -488 323
-838 878 -1020 1617 -72 288 -135 758 -106 776 7 5 45 11 84 14 226 18 430
165 526 380 41 90 53 150 53 262 0 122 -19 203 -73 306 -68 130 -185 238 -319
294 -25 10 -46 20 -48 21 -13 8 156 255 256 375 384 459 915 739 1454 766
l117 6 4 -24 c42 -217 78 -292 196 -409 61 -60 106 -95 153 -118 267 -130 559
-83 763 122 116 117 159 212 190 419 l6 37 50 0 c27 0 93 -5 147 -11z m-3346
-1202 c200 -73 352 -240 403 -442 19 -76 19 -204 0 -280 -43 -170 -174 -333
-326 -408 -300 -147 -661 -30 -812 262 -61 116 -72 163 -71 291 1 183 51 299
183 430 82 81 163 129 273 161 91 27 257 21 350 -14z m5178 3 c178 -60 326
-206 392 -386 16 -44 23 -89 26 -177 4 -106 1 -126 -22 -200 -26 -84 -77 -172
-138 -238 -158 -172 -406 -239 -628 -170 -186 58 -352 226 -409 415 -31 102
-29 249 4 355 63 198 240 365 443 416 83 21 248 14 332 -15z m-3500 -1466
c478 -34 943 -41 1415 -23 198 8 437 14 530 14 l170 0 17 -70 c42 -164 58
-393 65 -910 6 -427 -10 -899 -29 -830 -4 17 -39 397 -78 845 -87 1001 -87
1002 -89 810 -4 -532 70 -1550 129 -1768 25 -90 25 -116 1 -242 -38 -192 -161
-527 -296 -805 -131 -269 -277 -473 -434 -610 -322 -277 -743 -301 -1095 -62
-81 55 -206 176 -282 272 -234 300 -434 796 -498 1238 -15 98 -15 111 0 138
48 93 94 472 124 1019 14 258 39 954 34 959 -2 2 -6 -2 -8 -10 -4 -12 -165
-1804 -167 -1869 -3 -65 -18 88 -29 295 -15 272 -8 1209 9 1410 13 149 24 189
54 210 28 19 27 19 457 -11z"/>
<path d="M3519 7102 c-30 -10 -84 -38 -119 -62 -111 -75 -280 -260 -280 -306
0 -33 69 -125 169 -225 122 -121 210 -169 325 -177 95 -6 166 16 263 81 122
81 292 281 280 329 -9 35 -137 185 -209 246 -35 29 -96 69 -136 89 -63 32 -85
37 -155 40 -60 2 -97 -2 -138 -15z m204 -136 c57 -21 104 -62 137 -119 76
-133 8 -312 -139 -362 -194 -66 -383 114 -326 310 40 138 194 218 328 171z"/>
<path d="M3574 6841 c-49 -30 -64 -59 -64 -121 0 -48 4 -60 28 -82 56 -53 113
-62 169 -28 46 27 66 73 61 132 -6 54 -27 84 -75 104 -45 19 -82 17 -119 -5z"/>
<path d="M3460 5685 c-460 -70 -773 -284 -959 -653 -108 -216 -178 -556 -123
-605 52 -47 261 -118 462 -156 533 -101 1168 -92 1749 24 254 51 288 71 316
184 20 76 15 139 -25 296 -123 492 -431 793 -915 895 -133 28 -373 35 -505 15z
m435 -40 c459 -73 774 -339 920 -778 83 -251 84 -418 2 -472 -49 -32 -367 -96
-647 -132 -209 -26 -842 -26 -1045 0 -342 44 -655 128 -720 193 -23 23 -14
116 27 278 59 234 154 409 308 567 210 215 463 324 845 363 61 6 209 -3 310
-19z"/>
<path d="M3432 5465 c-274 -52 -503 -200 -646 -416 -44 -67 -134 -285 -143
-344 -7 -57 7 -79 72 -109 148 -71 384 -99 820 -100 351 0 505 11 840 59 282
41 302 52 293 160 -6 69 -101 266 -176 365 -142 187 -332 308 -585 371 -107
27 -367 35 -475 14z m-142 -408 c8 -3 29 -8 45 -12 45 -10 85 -53 84 -89 -1
-21 -3 -25 -6 -11 -9 37 -23 40 -29 6 -7 -31 -8 -33 -43 -27 -20 4 -52 8 -72
11 -20 3 -54 10 -75 17 -31 10 -40 19 -42 41 -4 30 -18 36 -25 10 -4 -14 -5
-14 -6 3 -2 45 103 76 169 51z m870 -12 c38 -19 42 -68 9 -86 -24 -12 -39 1
-39 34 0 9 -7 17 -16 17 -13 0 -15 -7 -10 -34 l7 -34 -64 -11 c-109 -19 -147
-13 -147 23 1 32 42 75 86 91 52 19 138 19 174 0z"/>
<path d="M830 5443 c-8 -3 -39 -14 -67 -25 l-53 -19 0 -48 c0 -41 -5 -52 -36
-82 -31 -30 -41 -34 -87 -34 l-52 0 -27 -54 c-35 -69 -35 -90 2 -126 25 -24
30 -37 30 -74 0 -41 -4 -49 -41 -81 l-40 -35 20 -59 c27 -78 36 -86 86 -86 37
0 47 -5 79 -40 33 -36 35 -43 30 -84 l-7 -44 61 -31 c34 -17 67 -31 75 -31 7
0 26 14 42 30 25 26 36 30 81 30 49 0 55 -3 80 -36 24 -31 32 -35 60 -31 18 3
53 15 78 26 46 20 46 20 46 70 0 45 3 52 38 81 31 26 44 30 81 28 40 -3 47 0
66 28 11 17 27 50 35 74 l14 43 -32 27 c-28 23 -32 32 -32 78 0 52 11 71 52
93 24 13 21 52 -11 123 -20 45 -20 46 -68 46 -45 0 -51 3 -84 43 -31 36 -34
46 -27 72 12 45 3 58 -57 88 -70 34 -85 34 -120 -3 -25 -26 -36 -30 -81 -30
-49 0 -53 2 -78 40 -27 41 -30 43 -56 33z m191 -258 c62 -22 101 -56 133 -116
78 -142 -10 -313 -176 -344 -50 -9 -134 17 -182 56 -134 112 -103 319 59 395
58 28 105 30 166 9z"/>
<path d="M6183 5313 c-65 -53 -155 -127 -200 -165 -52 -43 -91 -68 -106 -68
-13 0 -36 -9 -51 -21 -34 -27 -37 -91 -4 -126 l21 -23 -42 0 c-82 0 -131 -48
-131 -130 0 -52 22 -96 59 -114 15 -8 35 -30 44 -48 16 -32 15 -33 -6 -38 -17
-5 -22 -13 -22 -40 l0 -35 275 0 275 0 0 35 0 35 -102 3 c-96 3 -103 4 -123
29 -11 14 -20 29 -20 34 0 4 54 9 121 11 l121 3 34 37 c27 30 34 46 34 78 0
91 -48 140 -137 140 -27 0 -54 11 -95 38 l-58 38 33 30 c28 27 183 157 230
193 16 13 23 9 72 -39 44 -43 56 -62 61 -97 3 -23 12 -47 19 -53 9 -7 15 -57
20 -155 5 -106 11 -145 20 -145 9 0 14 39 20 143 4 92 11 147 20 157 18 21 28
105 16 129 -6 11 -21 23 -33 26 -13 4 -49 32 -80 63 -44 43 -58 63 -58 85 0
36 -49 87 -84 87 -17 0 -63 -31 -143 -97z m175 51 c17 -12 22 -24 20 -47 -3
-32 -34 -60 -298 -276 -79 -65 -96 -75 -93 -57 7 34 -13 64 -43 68 -24 3 -15
13 87 97 63 52 96 75 75 53 -22 -23 -37 -45 -33 -48 6 -6 60 33 146 104 54 46
34 60 -24 18 l-50 -37 50 46 c70 64 83 71 77 40 -6 -32 14 -55 47 -55 35 0 51
17 51 52 0 23 -7 32 -32 43 -18 8 -26 14 -18 15 9 0 26 -7 38 -16z m-207 -465
c114 -70 137 -95 118 -131 -29 -55 -50 -51 -188 33 -169 105 -160 96 -126 109
15 6 39 19 53 30 13 11 29 20 34 20 5 0 55 -28 109 -61z m-106 -109 c93 -56
161 -90 178 -90 69 0 104 101 52 150 -30 28 -27 35 8 19 52 -24 63 -108 21
-158 l-26 -31 -262 0 -262 0 -29 30 -29 30 47 0 c35 0 47 4 47 15 0 11 -12 15
-47 16 -47 1 -47 1 -14 9 19 5 38 15 43 24 7 12 25 16 78 16 40 0 70 4 70 10
0 6 -38 10 -94 10 -52 0 -97 4 -101 9 -11 18 30 30 100 31 l70 0 150 -90z"/>
</g>
</svg>
