<?xml version="1.0" standalone="no"?>
<!DOCTYPE svg PUBLIC "-//W3C//DTD SVG 20010904//EN"
 "http://www.w3.org/TR/2001/REC-SVG-20010904/DTD/svg10.dtd">
<svg version="1.0" xmlns="http://www.w3.org/2000/svg"
 width="3000.000000pt" height="3000.000000pt" viewBox="0 0 3000.000000 3000.000000"
 preserveAspectRatio="xMidYMid meet">
<metadata>
Created by potrace 1.16, written by Peter Selinger 2001-2019
</metadata>
<g transform="translate(0.000000,3000.000000) scale(0.100000,-0.100000)"
fill="#000000" stroke="none">
<path d="M14425 26184 c-747 -80 -1310 -660 -1370 -1411 l-7 -81 -136 -6
c-507 -24 -917 -97 -1347 -241 -487 -162 -927 -395 -1360 -720 -219 -165 -356
-284 -580 -509 -357 -358 -668 -760 -891 -1151 -37 -66 -69 -121 -70 -123 -1
-2 -53 7 -115 20 -161 31 -406 32 -566 0 -473 -94 -862 -391 -1072 -817 -248
-501 -202 -1087 120 -1545 71 -100 224 -258 328 -335 211 -159 483 -267 741
-294 47 -4 72 -9 57 -10 l-29 -1 7 -92 c36 -530 82 -892 175 -1361 266 -1341
759 -2447 1480 -3317 118 -143 452 -480 585 -591 316 -263 598 -447 945 -616
107 -52 206 -99 219 -106 21 -10 30 -36 71 -192 189 -727 481 -1415 826 -1943
453 -692 991 -1124 1598 -1283 204 -52 291 -63 536 -63 257 0 393 18 600 81
368 111 665 297 980 612 509 510 922 1251 1334 2394 86 239 157 449 176 525
10 40 15 45 73 69 100 42 414 205 517 268 799 486 1428 1191 1904 2135 124
246 193 399 281 620 278 701 483 1543 574 2350 18 160 29 288 46 538 l7 92
-26 0 c-19 0 1 14 69 50 138 71 236 142 353 255 219 210 359 451 427 738 83
350 44 699 -116 1022 -209 424 -604 726 -1064 815 -58 11 -123 20 -143 20 -20
0 -43 4 -49 8 -7 5 -45 64 -84 132 -230 401 -536 798 -894 1156 -225 225 -361
345 -580 509 -811 609 -1676 915 -2715 961 -97 4 -158 11 -162 18 -4 6 -8 30
-8 52 0 125 -67 360 -151 529 -209 424 -602 725 -1066 815 -105 21 -338 33
-428 24z m433 -83 c288 -61 522 -190 733 -400 211 -212 335 -438 401 -732 19
-88 23 -132 23 -294 0 -163 -3 -205 -23 -294 -64 -283 -183 -507 -377 -709
-172 -179 -364 -302 -586 -376 -180 -60 -252 -71 -464 -71 -212 0 -284 11
-464 71 -222 74 -414 197 -586 376 -194 202 -313 426 -377 709 -20 89 -23 131
-23 294 0 210 16 313 77 484 176 499 623 870 1153 956 125 20 388 13 513 -14z
m1573 -1421 c797 -62 1511 -298 2174 -720 683 -435 1307 -1084 1742 -1814 46
-77 83 -142 83 -146 0 -4 -46 -10 -102 -14 -553 -38 -1026 -352 -1267 -841
-160 -323 -199 -672 -116 -1022 68 -284 206 -525 421 -734 257 -248 559 -386
921 -420 207 -19 456 13 648 85 l68 26 -7 -132 c-41 -776 -226 -1726 -481
-2468 -481 -1399 -1228 -2417 -2237 -3051 -129 -81 -576 -315 -584 -306 -2 2
7 60 21 128 53 257 101 644 129 1044 72 988 54 2531 -40 3489 -19 190 -32 276
-74 456 -36 156 -51 188 -105 214 -63 31 -236 31 -960 -3 -363 -17 -802 -36
-975 -43 -425 -16 -1559 -17 -1860 0 -415 22 -873 52 -1360 88 -833 61 -875
60 -960 -25 -89 -89 -100 -154 -140 -841 -36 -620 -48 -2123 -22 -2715 38
-858 98 -1478 181 -1887 10 -49 15 -88 12 -88 -13 0 -366 176 -452 226 -1030
587 -1830 1604 -2337 2969 -304 820 -515 1835 -558 2688 l-7 137 60 0 c103 0
263 20 370 45 287 68 527 207 739 427 205 213 331 455 395 758 29 138 32 408
6 545 -91 470 -370 853 -784 1077 -49 26 -122 60 -163 74 -41 15 -78 30 -82
34 -14 11 153 289 295 492 811 1157 1939 1915 3187 2142 242 44 557 76 746 76
l93 0 6 -57 c35 -330 127 -575 304 -810 74 -99 234 -253 331 -322 538 -378
1259 -369 1781 24 104 77 257 235 328 335 158 225 247 472 273 758 l12 132
106 0 c58 0 167 -5 241 -10z m-7873 -2779 c288 -61 522 -190 733 -400 211
-212 335 -438 401 -732 19 -88 23 -132 23 -294 0 -163 -3 -205 -23 -294 -64
-283 -183 -507 -377 -709 -172 -179 -364 -302 -586 -376 -180 -60 -252 -71
-464 -71 -212 0 -284 11 -464 71 -222 74 -414 197 -586 376 -194 202 -313 426
-377 709 -20 89 -23 131 -23 294 0 210 16 313 77 484 176 499 623 870 1153
956 125 20 388 13 513 -14z m12150 0 c288 -61 522 -190 733 -400 211 -212 335
-438 401 -732 19 -88 23 -132 23 -294 0 -163 -3 -205 -23 -294 -64 -283 -183
-507 -377 -709 -172 -179 -364 -302 -586 -376 -180 -60 -252 -71 -464 -71
-212 0 -284 11 -464 71 -222 74 -414 197 -586 376 -194 202 -313 426 -377 709
-20 89 -23 131 -23 294 0 210 16 313 77 484 176 499 623 870 1153 956 125 20
388 13 513 -14z m-8242 -3466 c606 -43 934 -64 1339 -85 105 -6 390 -13 635
-17 603 -8 1202 9 2445 68 460 22 671 22 717 -1 32 -15 36 -26 82 -230 60
-269 91 -617 128 -1450 17 -370 16 -1661 0 -1975 -20 -372 -60 -891 -68 -882
-3 3 -394 4431 -394 4462 0 10 -2 16 -5 13 -8 -8 21 -956 50 -1623 69 -1589
182 -2683 306 -2964 25 -58 24 -88 -12 -303 -46 -277 -82 -421 -164 -667 -226
-672 -496 -1304 -750 -1751 -101 -176 -302 -478 -408 -610 -500 -625 -1060
-941 -1712 -967 -763 -30 -1449 342 -2005 1088 -415 556 -749 1288 -979 2144
-66 247 -124 557 -162 868 l-12 97 32 59 c120 225 221 1040 296 2391 26 472
56 1222 70 1730 3 113 8 275 11 360 3 85 4 153 1 150 -3 -3 -96 -1045 -208
-2317 -112 -1271 -205 -2311 -206 -2309 -5 4 -41 417 -53 596 -60 930 -65
2368 -10 3315 30 513 42 644 71 720 41 109 86 134 240 135 53 0 380 -20 725
-45z m-746 -3028 c-30 -409 -88 -1002 -98 -993 -2 3 22 305 54 673 33 367 60
653 62 635 2 -18 -6 -160 -18 -315z m5907 -972 c-2 -28 -44 340 -67 585 -18
189 -50 648 -49 692 1 24 28 -247 60 -602 32 -355 57 -658 56 -675z"/>
<path d="M14395 25565 c-49 -12 -112 -32 -138 -44 -27 -12 -54 -21 -61 -21
-16 0 -167 -95 -260 -164 -96 -71 -312 -287 -408 -406 -98 -124 -168 -227
-168 -249 0 -17 83 -142 173 -262 75 -101 302 -334 385 -397 128 -97 144 -108
237 -157 152 -79 250 -108 391 -113 147 -5 251 17 389 83 164 79 262 147 414
290 180 168 441 499 441 558 0 39 -184 280 -325 427 -369 384 -740 542 -1070
455z m361 -311 c117 -38 171 -71 252 -154 128 -130 176 -248 176 -430 0 -172
-44 -290 -154 -412 -136 -150 -357 -231 -545 -200 -199 34 -386 175 -470 358
-59 127 -67 331 -18 464 66 181 226 326 416 381 99 28 245 25 343 -7z"/>
<path d="M14493 24961 c-46 -12 -117 -56 -147 -92 -58 -68 -71 -107 -71 -204
1 -106 18 -148 88 -212 75 -69 120 -88 212 -88 70 0 87 4 133 29 139 77 198
212 157 361 -33 123 -139 206 -269 211 -39 2 -85 -1 -103 -5z"/>
<path d="M14495 22254 c-246 -16 -592 -72 -801 -129 -798 -217 -1407 -703
-1764 -1406 -119 -234 -202 -459 -260 -704 -106 -445 -116 -670 -32 -735 51
-41 267 -139 403 -184 984 -323 2535 -422 3924 -250 522 64 1233 207 1371 274
176 86 252 313 213 635 -14 114 -95 441 -152 610 -291 866 -870 1454 -1702
1727 -200 65 -443 117 -680 143 -135 16 -416 26 -520 19z m431 -69 c945 -90
1632 -471 2088 -1158 182 -274 311 -579 411 -975 74 -289 90 -452 60 -608 -26
-137 -91 -236 -181 -275 -137 -61 -876 -207 -1334 -263 -478 -59 -756 -76
-1295 -81 -627 -5 -1048 22 -1595 101 -625 90 -1240 267 -1399 401 -32 27 -34
34 -39 104 -7 117 28 341 98 619 169 673 559 1251 1095 1622 298 206 690 366
1092 447 162 32 369 60 498 67 66 4 122 8 124 10 10 9 232 3 377 -11z"/>
<path d="M14390 21743 c-82 -6 -264 -33 -365 -54 -672 -139 -1253 -565 -1533
-1124 -99 -199 -235 -560 -248 -661 -12 -96 35 -152 188 -224 317 -148 973
-233 1818 -234 346 -1 804 9 819 18 3 2 69 7 146 10 77 4 149 9 160 11 11 2
54 7 95 10 323 25 842 92 1193 155 243 44 294 75 320 195 23 110 -16 238 -166
546 -215 439 -504 761 -889 991 -374 223 -853 355 -1308 362 -102 2 -205 1
-230 -1z m-774 -948 c22 -17 60 -20 69 -5 10 16 41 11 60 -10 19 -21 51 -26
74 -11 11 7 25 1 48 -20 21 -18 45 -29 63 -29 22 0 35 -8 54 -36 13 -20 38
-45 55 -55 52 -32 63 -128 19 -173 -24 -23 -38 -7 -38 44 0 52 -14 74 -25 40
-4 -11 -6 -37 -5 -58 1 -20 2 -42 1 -48 -1 -17 -46 -25 -75 -14 -14 5 -43 10
-66 12 -24 1 -49 10 -62 22 -17 16 -26 17 -47 9 -16 -5 -38 -6 -56 -1 -17 5
-52 13 -80 18 -183 35 -188 39 -186 129 1 35 -3 61 -9 61 -11 0 -12 -8 -12
-57 0 -17 -5 -34 -12 -36 -22 -9 -49 21 -48 52 1 33 28 91 42 91 6 0 28 16 50
36 38 34 40 35 75 23 32 -12 37 -11 57 9 27 26 28 26 54 7z m2013 -14 c10 -6
33 -6 53 -2 41 10 92 -9 156 -56 49 -37 52 -41 52 -90 0 -77 -26 -109 -111
-133 -36 -11 -46 2 -55 68 -7 57 -25 89 -42 78 -17 -10 -15 -59 5 -107 15 -39
15 -43 0 -54 -15 -10 -82 -25 -191 -40 -21 -3 -42 -8 -47 -10 -4 -3 -41 -10
-81 -15 -193 -24 -266 82 -146 213 13 14 35 39 51 56 16 18 37 31 51 31 13 0
29 7 36 15 8 9 26 15 46 13 20 -1 41 5 52 16 15 13 29 16 55 11 20 -4 43 -2
54 4 23 13 39 14 62 2z"/>
<path d="M7915 21622 c-60 -21 -130 -49 -155 -62 l-45 -26 1 -64 c0 -36 2 -85
4 -109 3 -39 0 -46 -26 -65 -16 -11 -59 -49 -95 -83 -73 -70 -78 -71 -179 -47
-36 8 -74 13 -85 10 -40 -10 -173 -285 -160 -331 3 -11 24 -35 48 -53 109 -84
101 -70 98 -169 -2 -48 -4 -108 -5 -133 -1 -44 -2 -46 -71 -93 -117 -80 -112
-67 -75 -188 33 -108 78 -207 102 -227 11 -9 37 -9 107 0 l93 10 89 -93 c99
-105 99 -105 72 -224 -19 -90 -22 -85 89 -145 91 -49 193 -90 223 -90 15 0 42
24 85 76 l62 77 76 -7 c41 -3 101 -6 132 -6 l58 0 53 -77 c29 -43 58 -81 63
-86 23 -16 174 29 286 85 l65 33 -2 55 c-2 30 -5 76 -8 103 -6 47 -5 48 42 90
26 23 70 63 96 90 26 26 55 47 64 47 8 0 53 -8 99 -17 80 -17 83 -17 103 1 12
11 41 60 65 110 99 204 99 204 9 277 -38 29 -71 58 -75 63 -4 6 -4 66 -1 135
6 143 2 137 117 214 59 40 67 59 47 109 -5 13 -19 55 -31 93 -12 39 -36 96
-53 129 l-31 59 -106 -6 -105 -6 -87 94 c-49 52 -88 103 -88 113 0 10 7 44 15
75 25 95 21 112 -27 144 -74 49 -242 123 -280 123 -10 0 -45 -33 -80 -76 l-63
-77 -89 7 c-49 3 -110 6 -136 6 l-47 0 -57 85 c-36 54 -62 85 -74 84 -9 0 -66
-17 -127 -37z m450 -527 c317 -56 529 -369 461 -680 -64 -293 -344 -488 -638
-445 -249 36 -447 232 -483 478 -22 149 6 276 91 404 85 127 218 215 366 243
95 17 108 17 203 0z"/>
<path d="M20805 21560 c-5 -6 -64 -54 -130 -107 -108 -88 -272 -224 -659 -545
l-130 -108 -56 0 c-65 0 -104 -21 -154 -83 -28 -35 -31 -46 -31 -106 0 -59 4
-72 28 -105 16 -20 46 -48 68 -62 22 -13 37 -29 34 -34 -3 -6 -57 -10 -118
-10 -96 0 -119 -3 -162 -24 -58 -26 -113 -84 -122 -127 -3 -16 -9 -29 -14 -29
-5 0 -9 -49 -9 -110 0 -60 4 -110 9 -110 5 0 11 -12 14 -27 9 -43 62 -99 121
-128 48 -23 58 -34 95 -103 23 -42 40 -83 39 -92 -2 -10 -17 -16 -46 -18 -56
-4 -77 -34 -70 -97 10 -81 -42 -75 644 -75 696 0 644 -7 644 85 0 87 5 85
-264 85 -209 0 -235 2 -249 18 -23 25 -87 142 -87 158 0 12 45 14 268 14 259
0 269 1 317 24 61 28 116 87 140 149 24 64 18 205 -12 262 -55 105 -129 145
-270 145 l-96 0 -148 91 c-82 50 -149 97 -149 104 0 7 113 107 252 221 138
115 288 239 332 276 45 37 88 68 96 67 8 0 70 -53 138 -117 92 -89 122 -124
122 -143 0 -14 9 -42 20 -64 12 -24 20 -59 20 -90 0 -43 4 -53 30 -75 l30 -25
15 -320 c9 -176 17 -326 20 -332 8 -22 35 -15 35 10 0 12 7 162 16 332 l17
310 30 28 c26 25 29 33 24 68 -6 42 8 99 24 99 14 0 11 99 -3 117 -40 50 -73
74 -112 80 -36 5 -57 22 -168 131 l-128 125 0 64 c0 78 -13 104 -79 166 -50
45 -55 47 -109 47 -31 -1 -61 -5 -67 -10z m125 -50 c79 -40 114 -135 77 -207
-10 -18 -118 -115 -259 -231 -134 -110 -354 -293 -491 -406 -186 -155 -256
-207 -283 -212 -109 -20 -208 87 -175 189 15 43 51 81 177 182 107 87 585 483
726 602 85 72 135 102 171 103 10 0 36 -9 57 -20z m227 -362 c57 -57 103 -110
103 -119 0 -15 -20 -37 -48 -53 -8 -5 -52 30 -125 101 -62 59 -114 112 -116
116 -6 14 41 57 63 57 13 0 60 -39 123 -102z m249 -182 c45 -45 46 -91 6 -134
-39 -42 -76 -50 -120 -26 -67 36 -77 121 -20 169 44 37 91 34 134 -9z m-1586
-212 c0 -3 -13 -24 -30 -47 -46 -64 -49 -118 -11 -189 26 -51 28 -58 12 -58
-22 0 -89 64 -102 97 -23 62 6 144 67 183 28 19 64 27 64 14z m421 -212 c13
-10 105 -67 204 -127 254 -153 290 -179 309 -218 23 -50 21 -107 -6 -147 -38
-55 -72 -74 -131 -74 -49 1 -64 8 -257 129 -113 70 -261 161 -330 203 -69 41
-134 84 -145 95 -20 19 -20 19 19 12 72 -12 112 2 204 76 47 38 91 69 97 69 7
0 23 -8 36 -18z m-189 -294 c434 -265 489 -297 527 -308 114 -30 230 64 231
187 0 79 -28 122 -117 180 -29 18 -53 38 -53 43 0 18 89 10 136 -11 82 -39
124 -117 124 -233 0 -95 -34 -166 -100 -211 l-45 -30 -590 -3 c-409 -2 -602 0
-628 8 -44 13 -102 61 -123 102 -27 52 -16 58 96 58 93 0 100 1 100 20 0 19
-7 20 -105 20 -89 0 -106 3 -113 18 -18 34 -4 42 74 42 59 0 76 3 81 16 9 24
-16 35 -77 32 -41 -2 -55 0 -55 11 0 11 46 14 250 15 228 1 250 2 253 18 3 16
-16 18 -244 20 -268 3 -279 6 -227 54 58 55 94 64 265 64 l158 0 182 -112z
m108 -458 c12 -16 18 -34 15 -40 -3 -6 -52 -10 -113 -10 -107 0 -141 -8 -128
-29 5 -7 52 -11 135 -11 114 0 130 -2 146 -20 9 -10 15 -26 12 -35 -6 -13 -41
-15 -262 -15 -240 0 -256 1 -275 20 -23 23 -80 133 -80 155 0 13 34 15 264 15
l265 0 21 -30z m588 -205 c9 -3 12 -18 10 -42 l-3 -38 -591 -3 c-527 -2 -593
0 -604 14 -10 11 -11 23 -4 42 8 23 17 28 54 32 57 6 1120 2 1138 -5z"/>
<path d="M20807 21462 c-41 -28 -56 -53 -57 -95 0 -31 7 -46 34 -73 28 -28 42
-34 76 -34 57 0 110 50 110 104 0 88 -93 144 -163 98z m97 -43 c32 -25 34 -66
6 -97 -42 -45 -120 -15 -120 47 0 32 39 71 70 71 10 0 29 -9 44 -21z"/>
<path d="M20478 21180 c-183 -152 -220 -190 -183 -190 18 0 389 306 393 325 9
38 -34 11 -210 -135z"/>
<path d="M19892 20695 c-41 -41 -44 -48 -39 -82 8 -46 64 -103 103 -103 52 0
111 47 120 95 8 42 -17 90 -59 115 -49 30 -74 25 -125 -25z m128 -33 c27 -34
25 -53 -8 -85 -37 -35 -64 -34 -96 4 -30 36 -32 46 -10 77 32 46 80 48 114 4z"/>
<path d="M20555 20244 c-62 -31 -87 -92 -60 -144 19 -37 70 -70 109 -70 39 0
106 67 106 106 0 41 -32 88 -73 107 -43 21 -45 21 -82 1z m84 -50 c38 -32 40
-66 6 -99 -30 -30 -54 -31 -89 -4 -44 35 -32 101 24 122 25 9 27 8 59 -19z"/>
<path d="M13793 7992 c-62 -152 -115 -285 -119 -294 -5 -16 0 -18 43 -18 l50
0 33 85 33 85 111 0 111 0 34 -86 33 -85 44 3 c24 2 45 6 47 10 1 4 -50 136
-113 293 l-115 285 -40 0 -40 0 -112 -278z m191 39 c20 -51 36 -95 36 -97 0
-2 -34 -4 -76 -4 -57 0 -75 3 -72 13 40 107 71 187 73 185 2 -2 19 -45 39 -97z"/>
<path d="M14487 8264 c-4 -4 -7 -137 -7 -296 l0 -288 185 0 185 0 0 40 0 40
-135 0 -135 0 -2 253 -3 252 -40 3 c-23 2 -44 0 -48 -4z"/>
<path d="M15140 7976 l0 -296 186 0 185 0 -3 38 -3 37 -137 3 -138 3 -2 252
-3 252 -42 3 -43 3 0 -295z"/>
<path d="M14223 7030 c-311 -102 -323 -635 -17 -750 75 -28 193 -27 269 1 183
68 269 306 194 537 -27 81 -106 170 -181 202 -75 32 -185 36 -265 10z m181
-101 c60 -15 110 -59 142 -126 24 -47 28 -69 28 -142 1 -109 -21 -175 -75
-230 -50 -50 -93 -64 -179 -59 -51 3 -76 10 -104 28 -81 54 -124 166 -113 288
17 180 143 281 301 241z"/>
<path d="M12340 7018 c-62 -143 -290 -716 -290 -730 0 -15 9 -18 58 -18 l57 0
44 110 43 111 145 -3 145 -3 41 -107 42 -108 57 0 c31 0 59 4 62 9 3 4 -63
177 -147 382 l-152 374 -48 3 c-41 3 -48 0 -57 -20z m108 -294 c23 -61 42
-114 42 -117 0 -4 -43 -7 -96 -7 -111 0 -106 -18 -41 148 22 57 43 100 47 95
3 -4 25 -58 48 -119z"/>
<path d="M13095 7027 c-3 -6 -4 -179 -3 -382 l3 -370 125 -3 c156 -4 245 10
302 48 64 43 91 90 96 165 5 76 -20 132 -73 165 -36 22 -36 22 -14 37 48 34
73 144 48 210 -14 38 -56 81 -103 105 -65 33 -371 54 -381 25z m325 -122 c35
-18 50 -43 50 -85 0 -75 -42 -100 -170 -100 l-90 0 0 100 0 100 90 0 c62 0
100 -5 120 -15z m-19 -305 c71 -14 99 -41 99 -96 0 -86 -65 -124 -214 -124
l-76 0 0 115 0 115 69 0 c37 0 92 -5 122 -10z"/>
<path d="M15091 7026 c-10 -12 -12 -77 -9 -283 5 -306 12 -337 83 -408 54 -54
115 -75 220 -75 141 0 230 49 276 152 23 51 24 64 27 326 3 207 1 277 -9 288
-8 10 -27 14 -58 12 l-46 -3 -5 -275 c-5 -252 -7 -278 -25 -309 -36 -62 -66
-76 -158 -76 -69 0 -87 4 -113 22 -64 45 -68 69 -74 368 l-5 270 -46 3 c-32 2
-50 -2 -58 -12z"/>
<path d="M16034 7026 c-3 -7 -4 -33 -2 -57 l3 -44 117 -3 118 -3 2 -322 3
-322 55 0 55 0 3 323 2 322 113 0 c126 0 137 5 137 60 0 20 -5 41 -12 48 -19
19 -587 17 -594 -2z"/>
<path d="M11900 5824 c-237 -51 -390 -239 -390 -479 0 -244 137 -419 375 -480
76 -19 234 -19 310 0 184 47 317 172 361 339 34 127 10 306 -55 408 -112 176
-361 264 -601 212z m326 -164 c127 -65 179 -168 172 -338 -3 -82 -8 -107 -31
-154 -70 -142 -236 -211 -416 -174 -172 36 -259 140 -269 321 -10 188 64 311
221 367 40 14 74 18 153 16 94 -3 107 -6 170 -38z"/>
<path d="M14933 5829 c-167 -28 -319 -145 -374 -289 -91 -237 -6 -504 197
-620 112 -65 310 -88 452 -55 292 69 444 350 352 647 -73 234 -333 366 -627
317z m295 -163 c103 -47 162 -129 184 -254 21 -122 -15 -254 -89 -328 -109
-110 -315 -132 -466 -52 -88 47 -136 116 -157 226 -38 192 52 369 214 422 92
30 229 24 314 -14z"/>
<path d="M10167 5813 c-4 -3 -7 -214 -7 -468 0 -345 3 -464 12 -473 7 -7 39
-12 73 -12 34 0 66 5 73 12 8 8 12 66 12 195 l0 183 68 0 69 0 174 -195 173
-196 71 3 c56 2 70 6 73 20 2 10 -57 90 -148 199 l-150 182 64 21 c111 38 171
90 201 177 29 82 12 167 -47 234 -87 99 -191 125 -497 125 -114 0 -211 -3
-214 -7z m520 -161 c54 -28 77 -71 70 -129 -10 -96 -85 -131 -294 -140 l-133
-6 0 152 0 153 158 -4 c140 -3 162 -6 199 -26z"/>
<path d="M13183 5809 c-10 -10 -13 -118 -13 -470 0 -397 2 -458 15 -469 20
-16 423 -8 505 10 162 37 262 127 277 249 10 91 -38 171 -130 218 l-38 19 42
33 c117 94 102 269 -29 352 -87 55 -125 62 -382 66 -182 4 -238 2 -247 -8z
m475 -144 c30 -9 59 -26 71 -42 29 -35 28 -101 -1 -138 -36 -46 -79 -57 -240
-63 l-148 -5 0 132 0 131 133 0 c90 0 150 -5 185 -15z m-30 -385 c95 -11 143
-35 162 -80 17 -42 6 -98 -26 -131 -44 -46 -102 -60 -271 -66 l-153 -6 0 147
0 146 103 0 c56 0 139 -4 185 -10z"/>
<path d="M16047 5813 c-12 -11 -8 -108 5 -121 8 -8 64 -12 185 -12 l173 0 0
-398 c0 -296 3 -401 12 -410 16 -16 130 -16 146 0 9 9 12 114 12 410 l0 398
173 0 c121 0 177 4 185 12 7 7 12 33 12 58 0 25 -5 51 -12 58 -9 9 -122 12
-448 12 -240 0 -440 -3 -443 -7z"/>
<path d="M17477 5814 c-4 -4 -7 -215 -7 -469 0 -345 3 -464 12 -473 17 -17
133 -16 147 2 8 9 10 143 9 477 l-3 464 -75 3 c-42 1 -79 0 -83 -4z"/>
<path d="M18184 5805 c-6 -15 10 -36 239 -313 59 -71 107 -134 107 -139 0 -6
-85 -111 -189 -234 -219 -260 -219 -259 -93 -258 l77 0 155 189 c85 105 158
190 163 190 4 0 78 -85 165 -190 l157 -190 76 0 c61 0 78 3 83 16 3 9 3 21 -1
27 -4 7 -89 110 -190 229 l-183 218 180 217 c99 120 179 225 178 233 -3 12
-21 16 -83 18 l-80 3 -144 -176 c-79 -96 -147 -178 -151 -180 -4 -3 -75 76
-156 175 l-148 180 -79 0 c-60 0 -79 -3 -83 -15z"/>
</g>
</svg>
