<svg id="Layer_3" enable-background="new 0 0 64 64" height="512" viewBox="0 0 64 64" width="512" xmlns="http://www.w3.org/2000/svg"><g><path d="m58 9h-3v-7c0-.552-.447-1-1-1h-44c-.553 0-1 .448-1 1v7h-3c-2.757 0-5 2.243-5 5v32c0 2.757 2.243 5 5 5h14.586l.586.586c1.179 1.179 1.828 2.746 1.828 4.414s-.649 3.235-1.828 4.414l-.586.586h-9.586v2h42v-2h-9.586l-.586-.586c-1.179-1.179-1.828-2.746-1.828-4.414s.649-3.235 1.828-4.414l.586-.586h14.586c2.757 0 5-2.243 5-5v-32c0-2.757-2.243-5-5-5zm-47-6h42v28h-42zm-5 8h3v21c0 .552.447 1 1 1h44c.553 0 1-.448 1-1v-21h3c1.654 0 3 1.346 3 3v27h-58v-27c0-1.654 1.346-3 3-3zm34.699 50h-17.398c1.097-1.43 1.699-3.167 1.699-5s-.602-3.57-1.699-5h17.398c-1.097 1.43-1.699 3.167-1.699 5s.602 3.57 1.699 5zm17.301-12h-52c-1.654 0-3-1.346-3-3v-3h58v3c0 1.654-1.346 3-3 3z"/><path d="m57 45h2v2h-2z"/><path d="m47.707 17.707c.391-.391.391-1.023 0-1.414l-1.343-1.343c-3.837-3.837-8.937-5.95-14.364-5.95s-10.527 2.113-14.364 5.95l-1.343 1.343c-.391.391-.391 1.023 0 1.414l1.343 1.343c3.837 3.837 8.937 5.95 14.364 5.95s10.527-2.113 14.364-5.95zm-9.707-.707c0 3.309-2.691 6-6 6s-6-2.691-6-6 2.691-6 6-6 6 2.691 6 6zm-19.586 0 .636-.636c1.902-1.902 4.156-3.314 6.606-4.218-1.034 1.348-1.656 3.028-1.656 4.854s.622 3.506 1.656 4.854c-2.45-.904-4.704-2.316-6.606-4.218zm26.536.636c-1.902 1.902-4.156 3.314-6.606 4.218 1.034-1.348 1.656-3.028 1.656-4.854s-.622-3.506-1.656-4.854c2.45.904 4.704 2.316 6.606 4.218l.636.636z"/><path d="m32 21c2.206 0 4-1.794 4-4s-1.794-4-4-4-4 1.794-4 4 1.794 4 4 4zm0-6c1.103 0 2 .897 2 2s-.897 2-2 2-2-.897-2-2 .897-2 2-2z"/><path d="m15 7h5v-2h-6c-.553 0-1 .448-1 1v6h2z"/><path d="m15 22h-2v6c0 .552.447 1 1 1h6v-2h-5z"/><path d="m50 5h-6v2h5v5h2v-6c0-.552-.447-1-1-1z"/><path d="m49 27h-5v2h6c.553 0 1-.448 1-1v-6h-2z"/></g></svg>